<svg id="SvgjsSvg1082" width="656" height="146.5" xmlns="http://www.w3.org/2000/svg" version="1.1" xmlns:xlink="http://www.w3.org/1999/xlink" xmlns:svgjs="http://svgjs.com/svgjs"><defs id="SvgjsDefs1083"></defs><g id="SvgjsG1084" transform="translate(25,100)"><path id="SvgjsPath1085" d="M 0 0L 35 0L 35 20L 0 20Z" stroke="none" fill="none"></path><g id="SvgjsG1086"><text id="SvgjsText1087" font-family="微软雅黑" text-anchor="middle" font-size="13px" width="8" fill="#323232" font-weight="700" align="middle" anchor="middle" family="微软雅黑" size="13px" weight="700" font-style="" opacity="1" y="0.050000000000000044" transform="rotate(0)"><tspan id="SvgjsTspan1088" dy="16" x="17.5"><tspan id="SvgjsTspan1089" style="text-decoration:;">0</tspan></tspan></text></g></g><g id="SvgjsG1090" transform="translate(51,98.5)"><path id="SvgjsPath1091" d="M 0 0L 340 0L 340 23L 0 23Z" stroke="none" fill="none"></path><g id="SvgjsG1092"><text id="SvgjsText1093" font-family="微软雅黑" text-anchor="middle" font-size="13px" width="320" fill="#999900" font-weight="700" align="middle" anchor="middle" family="微软雅黑" size="13px" weight="700" font-style="" opacity="1" y="1.55" transform="rotate(0)"><tspan id="SvgjsTspan1094" dy="16" x="170"><tspan id="SvgjsTspan1095" style="text-decoration:;">00000000000000000000000000000000000000000</tspan></tspan></text></g></g><g id="SvgjsG1096" transform="translate(394,100)"><path id="SvgjsPath1097" d="M 0 0L 55 0L 55 20L 0 20Z" stroke="none" fill="none"></path><g id="SvgjsG1098"><text id="SvgjsText1099" font-family="微软雅黑" text-anchor="middle" font-size="13px" width="39" fill="#ff6666" font-weight="700" align="middle" anchor="middle" family="微软雅黑" size="13px" weight="700" font-style="" opacity="1" y="0.050000000000000044" transform="rotate(0)"><tspan id="SvgjsTspan1100" dy="16" x="27.5"><tspan id="SvgjsTspan1101" style="text-decoration:;">00000</tspan></tspan></text></g></g><g id="SvgjsG1102" transform="translate(457,100)"><path id="SvgjsPath1103" d="M 0 0L 55 0L 55 20L 0 20Z" stroke="none" fill="none"></path><g id="SvgjsG1104"><text id="SvgjsText1105" font-family="微软雅黑" text-anchor="middle" font-size="13px" width="39" fill="#ff9933" font-weight="700" align="middle" anchor="middle" family="微软雅黑" size="13px" weight="700" font-style="" opacity="1" y="0.050000000000000044" transform="rotate(0)"><tspan id="SvgjsTspan1106" dy="16" x="27.5"><tspan id="SvgjsTspan1107" style="text-decoration:;">00000</tspan></tspan></text></g></g><g id="SvgjsG1108" transform="translate(516,100)"><path id="SvgjsPath1109" d="M 0 0L 115 0L 115 20L 0 20Z" stroke="none" fill="none"></path><g id="SvgjsG1110"><text id="SvgjsText1111" font-family="微软雅黑" text-anchor="middle" font-size="13px" width="94" fill="#3399ff" font-weight="700" align="middle" anchor="middle" family="微软雅黑" size="13px" weight="700" font-style="" opacity="1" y="0.050000000000000044" transform="rotate(0)"><tspan id="SvgjsTspan1112" dy="16" x="57.5"><tspan id="SvgjsTspan1113" style="text-decoration:;">000000000000</tspan></tspan></text></g></g><g id="SvgjsG1114" transform="matrix(6.123233995736766e-17,1,-1,6.123233995736766e-17,375,25.00000000000002)"><path id="SvgjsPath1115" d="M 72 0Q 64.8 0 64.8 9L 64.8 146.25000000000003Q 64.8 155.25000000000003 50 155.25000000000003Q 64.8 155.25000000000003 64.8 164.25000000000003L 64.8 301.50000000000006Q 64.8 310.50000000000006 72 310.50000000000006" stroke="rgba(50,50,50,1)" stroke-width="2" fill="none"></path><path id="SvgjsPath1116" d="M 0 0L 72 0L 72 310.50000000000006L 0 310.50000000000006Z" stroke="none" fill="none"></path><g id="SvgjsG1117"><text id="SvgjsText1118" font-family="微软雅黑" text-anchor="end" font-size="13px" width="0" fill="#323232" font-weight="700" align="middle" anchor="end" family="微软雅黑" size="13px" weight="700" font-style="" opacity="1" y="145.30000000000004" transform="rotate(0)"></text></g></g><g id="SvgjsG1119" transform="translate(159.75,38)"><path id="SvgjsPath1120" d="M 0 0L 120 0L 120 40L 0 40Z" stroke="none" fill="none"></path><g id="SvgjsG1121"><text id="SvgjsText1122" font-family="微软雅黑" text-anchor="middle" font-size="13px" width="64" fill="#323232" font-weight="700" align="middle" anchor="middle" family="微软雅黑" size="13px" weight="700" font-style="" opacity="1" y="10.05" transform="rotate(0)"><tspan id="SvgjsTspan1123" dy="16" x="60"><tspan id="SvgjsTspan1124" style="text-decoration:;">时间(41bit)</tspan></tspan></text></g></g><g id="SvgjsG1125" transform="matrix(6.123233995736766e-17,1,-1,6.123233995736766e-17,445,31.25)"><path id="SvgjsPath1126" d="M 65.5 0Q 58.95 0 58.95 4.1499999999999995L 58.95 16.599999999999998Q 58.95 20.749999999999996 43.5 20.749999999999996Q 58.95 20.749999999999996 58.95 24.899999999999995L 58.95 37.349999999999994Q 58.95 41.49999999999999 65.5 41.49999999999999" stroke="rgba(50,50,50,1)" stroke-width="2" fill="none"></path><path id="SvgjsPath1127" d="M 0 0L 65.5 0L 65.5 41.49999999999999L 0 41.49999999999999Z" stroke="none" fill="none"></path><g id="SvgjsG1128"><text id="SvgjsText1129" font-family="微软雅黑" text-anchor="end" font-size="13px" width="0" fill="#323232" font-weight="700" align="middle" anchor="end" family="微软雅黑" size="13px" weight="700" font-style="" opacity="1" y="10.799999999999997" transform="rotate(0)"></text></g></g><g id="SvgjsG1130" transform="translate(364.25,38)"><path id="SvgjsPath1131" d="M 0 0L 120 0L 120 40L 0 40Z" stroke="none" fill="none"></path><g id="SvgjsG1132"><text id="SvgjsText1133" font-family="微软雅黑" text-anchor="middle" font-size="13px" width="56" fill="#323232" font-weight="700" align="middle" anchor="middle" family="微软雅黑" size="13px" weight="700" font-style="" opacity="1" y="10.05" transform="rotate(0)"><tspan id="SvgjsTspan1134" dy="16" x="60"><tspan id="SvgjsTspan1135" style="text-decoration:;">center(5)</tspan></tspan></text></g></g><g id="SvgjsG1136" transform="matrix(6.123233995736766e-17,1,-1,6.123233995736766e-17,504,31.25)"><path id="SvgjsPath1137" d="M 65.5 0Q 58.95 0 58.95 4.1499999999999995L 58.95 16.599999999999998Q 58.95 20.749999999999996 43.5 20.749999999999996Q 58.95 20.749999999999996 58.95 24.899999999999995L 58.95 37.349999999999994Q 58.95 41.49999999999999 65.5 41.49999999999999" stroke="rgba(50,50,50,1)" stroke-width="2" fill="none"></path><path id="SvgjsPath1138" d="M 0 0L 65.5 0L 65.5 41.49999999999999L 0 41.49999999999999Z" stroke="none" fill="none"></path><g id="SvgjsG1139"><text id="SvgjsText1140" font-family="微软雅黑" text-anchor="end" font-size="13px" width="0" fill="#323232" font-weight="700" align="middle" anchor="end" family="微软雅黑" size="13px" weight="700" font-style="" opacity="1" y="10.799999999999997" transform="rotate(0)"></text></g></g><g id="SvgjsG1141" transform="translate(451.375,43.24999999999997)"><path id="SvgjsPath1142" d="M 0 0L 63.75 0L 63.75 30L 0 30Z" stroke="none" fill="none"></path><g id="SvgjsG1143"><text id="SvgjsText1144" font-family="微软雅黑" text-anchor="middle" font-size="13px" width="59" fill="#323232" font-weight="700" align="middle" anchor="middle" family="微软雅黑" size="13px" weight="700" font-style="" opacity="1" y="5.05" transform="rotate(0)"><tspan id="SvgjsTspan1145" dy="16" x="32"><tspan id="SvgjsTspan1146" style="text-decoration:;">worker(5)</tspan></tspan></text></g></g><g id="SvgjsG1147" transform="matrix(6.123233995736766e-17,1,-1,6.123233995736766e-17,617.9375,32)"><path id="SvgjsPath1148" d="M 64 0Q 57.6 0 57.6 8.887500000000001L 57.6 35.55Q 57.6 44.4375 42 44.4375Q 57.6 44.4375 57.6 53.325L 57.6 79.9875Q 57.6 88.875 64 88.875" stroke="rgba(50,50,50,1)" stroke-width="2" fill="none"></path><path id="SvgjsPath1149" d="M 0 0L 64 0L 64 88.875L 0 88.875Z" stroke="none" fill="none"></path><g id="SvgjsG1150"><text id="SvgjsText1151" font-family="微软雅黑" text-anchor="end" font-size="13px" width="0" fill="#323232" font-weight="700" align="middle" anchor="end" family="微软雅黑" size="13px" weight="700" font-style="" opacity="1" y="34.4875" transform="rotate(0)"></text></g></g><g id="SvgjsG1152" transform="translate(533.8125,43.24999999999997)"><path id="SvgjsPath1153" d="M 0 0L 88.1875 0L 88.1875 30L 0 30Z" stroke="none" fill="none"></path><g id="SvgjsG1154"><text id="SvgjsText1155" font-family="微软雅黑" text-anchor="middle" font-size="13px" width="81" fill="#323232" font-weight="700" align="middle" anchor="middle" family="微软雅黑" size="13px" weight="700" font-style="" opacity="1" y="5.05" transform="rotate(0)"><tspan id="SvgjsTspan1156" dy="16" x="44.5"><tspan id="SvgjsTspan1157" style="text-decoration:;">sequence(12)</tspan></tspan></text></g></g></svg>