<svg id="SvgjsSvg1006" width="254" height="187" xmlns="http://www.w3.org/2000/svg" version="1.1" xmlns:xlink="http://www.w3.org/1999/xlink" xmlns:svgjs="http://svgjs.com/svgjs"><defs id="SvgjsDefs1007"></defs><g id="SvgjsG1008" transform="translate(25,87)"><path id="SvgjsPath1009" d="M 0 0L 34 0L 34 21L 0 21Z" stroke="rgba(50,50,50,1)" stroke-width="2" fill-opacity="1" fill="#ffffff"></path><g id="SvgjsG1010"><text id="SvgjsText1011" font-family="微软雅黑" text-anchor="middle" font-size="13px" width="14px" fill="#323232" font-weight="700" align="middle" anchor="middle" family="微软雅黑" size="13px" weight="700" font-style="" opacity="1" y="0.55" transform="rotate(0)"><tspan id="SvgjsTspan1012" dy="16" x="17"><tspan id="SvgjsTspan1013" style="text-decoration:;font-weight: bold;">b</tspan></tspan></text></g></g><g id="SvgjsG1014" transform="translate(59,87)"><path id="SvgjsPath1015" d="M 0 0L 34 0L 34 21L 0 21Z" stroke="rgba(50,50,50,1)" stroke-width="2" fill-opacity="1" fill="#ffcccc"></path><g id="SvgjsG1016"><text id="SvgjsText1017" font-family="微软雅黑" text-anchor="middle" font-size="13px" width="14px" fill="#323232" font-weight="700" align="middle" anchor="middle" family="微软雅黑" size="13px" weight="700" font-style="" opacity="1" y="0.55" transform="rotate(0)"><tspan id="SvgjsTspan1018" dy="16" x="17"><tspan id="SvgjsTspan1019" style="text-decoration:;font-weight: bold;">a</tspan></tspan></text></g></g><g id="SvgjsG1020" transform="translate(93,87)"><path id="SvgjsPath1021" d="M 0 0L 34 0L 34 21L 0 21Z" stroke="rgba(50,50,50,1)" stroke-width="2" fill-opacity="1" fill="#ffcccc"></path><g id="SvgjsG1022"><text id="SvgjsText1023" font-family="微软雅黑" text-anchor="middle" font-size="13px" width="14px" fill="#323232" font-weight="700" align="middle" anchor="middle" family="微软雅黑" size="13px" weight="700" font-style="" opacity="1" y="0.55" transform="rotate(0)"><tspan id="SvgjsTspan1024" dy="16" x="17"><tspan id="SvgjsTspan1025" style="text-decoration:;font-weight: bold;">n</tspan></tspan></text></g></g><g id="SvgjsG1026" transform="translate(127,87)"><path id="SvgjsPath1027" d="M 0 0L 34 0L 34 21L 0 21Z" stroke="rgba(50,50,50,1)" stroke-width="2" fill-opacity="1" fill="#ffe6cc"></path><g id="SvgjsG1028"><text id="SvgjsText1029" font-family="微软雅黑" text-anchor="middle" font-size="13px" width="14px" fill="#323232" font-weight="700" align="middle" anchor="middle" family="微软雅黑" size="13px" weight="700" font-style="" opacity="1" y="0.55" transform="rotate(0)"><tspan id="SvgjsTspan1030" dy="16" x="17"><tspan id="SvgjsTspan1031" style="text-decoration:;font-weight: bold;">a</tspan></tspan></text></g></g><g id="SvgjsG1032" transform="translate(161,87)"><path id="SvgjsPath1033" d="M 0 0L 34 0L 34 21L 0 21Z" stroke="rgba(50,50,50,1)" stroke-width="2" fill-opacity="1" fill="#e5ccff"></path><g id="SvgjsG1034"><text id="SvgjsText1035" font-family="微软雅黑" text-anchor="middle" font-size="13px" width="14px" fill="#323232" font-weight="700" align="middle" anchor="middle" family="微软雅黑" size="13px" weight="700" font-style="" opacity="1" y="0.55" transform="rotate(0)"><tspan id="SvgjsTspan1036" dy="16" x="17"><tspan id="SvgjsTspan1037" style="text-decoration:;font-weight: bold;">n</tspan></tspan></text></g></g><g id="SvgjsG1038" transform="translate(195,87)"><path id="SvgjsPath1039" d="M 0 0L 34 0L 34 21L 0 21Z" stroke="rgba(50,50,50,1)" stroke-width="2" fill-opacity="1" fill="#e5ccff"></path><g id="SvgjsG1040"><text id="SvgjsText1041" font-family="微软雅黑" text-anchor="middle" font-size="13px" width="14px" fill="#323232" font-weight="700" align="middle" anchor="middle" family="微软雅黑" size="13px" weight="700" font-style="" opacity="1" y="0.55" transform="rotate(0)"><tspan id="SvgjsTspan1042" dy="16" x="17"><tspan id="SvgjsTspan1043" style="text-decoration:;font-weight: bold;">a</tspan></tspan></text></g></g><g id="SvgjsG1044" transform="matrix(6.123233995736766e-17,1,-1,6.123233995736766e-17,127,115)"><path id="SvgjsPath1045" d="M 0 67Q 2.7 67 2.7 60.3L 2.7 40.2Q 2.7 33.5 22 33.5Q 2.7 33.5 2.7 26.8L 2.7 6.7Q 2.7 0 0 0" stroke="rgba(50,50,50,1)" stroke-width="2" fill="none"></path><path id="SvgjsPath1046" d="M 0 0L 27 0L 27 67L 0 67Z" stroke="none" fill="none"></path><g id="SvgjsG1047"><text id="SvgjsText1048" font-family="微软雅黑" text-anchor="start" font-size="13px" width="0px" fill="#323232" font-weight="400" align="middle" anchor="start" family="微软雅黑" size="13px" weight="400" font-style="" opacity="1" y="23.55" transform="rotate(0)"></text></g></g><g id="SvgjsG1049" transform="matrix(6.123233995736766e-17,1,-1,6.123233995736766e-17,228,115)"><path id="SvgjsPath1050" d="M 0 67Q 2.7 67 2.7 60.3L 2.7 40.2Q 2.7 33.5 22 33.5Q 2.7 33.5 2.7 26.8L 2.7 6.7Q 2.7 0 0 0" stroke="rgba(50,50,50,1)" stroke-width="2" fill="none"></path><path id="SvgjsPath1051" d="M 0 0L 27 0L 27 67L 0 67Z" stroke="none" fill="none"></path><g id="SvgjsG1052"><text id="SvgjsText1053" font-family="微软雅黑" text-anchor="start" font-size="13px" width="0px" fill="#323232" font-weight="400" align="middle" anchor="start" family="微软雅黑" size="13px" weight="400" font-style="" opacity="1" y="23.55" transform="rotate(0)"></text></g></g><g id="SvgjsG1054" transform="translate(67.25,133)"><path id="SvgjsPath1055" d="M 0 0L 52.5 0L 52.5 29L 0 29Z" stroke="none" fill="none"></path><g id="SvgjsG1056"><text id="SvgjsText1057" font-family="微软雅黑" text-anchor="middle" font-size="13px" width="53px" fill="#323232" font-weight="400" align="middle" anchor="middle" family="微软雅黑" size="13px" weight="400" font-style="" opacity="1" y="4.55" transform="rotate(0)"><tspan id="SvgjsTspan1058" dy="16" x="26.5"><tspan id="SvgjsTspan1059" style="text-decoration:;font-weight: bold;">part0</tspan></tspan></text></g></g><g id="SvgjsG1060" transform="translate(168.25,133)"><path id="SvgjsPath1061" d="M 0 0L 52.5 0L 52.5 29L 0 29Z" stroke="none" fill="none"></path><g id="SvgjsG1062"><text id="SvgjsText1063" font-family="微软雅黑" text-anchor="middle" font-size="13px" width="53px" fill="#323232" font-weight="400" align="middle" anchor="middle" family="微软雅黑" size="13px" weight="400" font-style="" opacity="1" y="4.55" transform="rotate(0)"><tspan id="SvgjsTspan1064" dy="16" x="26.5"><tspan id="SvgjsTspan1065" style="text-decoration:;font-weight: bold;">part1</tspan></tspan></text></g></g><g id="SvgjsG1066" transform="matrix(-1.8369701987210297e-16,-1,1,-1.8369701987210297e-16,60.000000000000014,76.99999999999999)"><path id="SvgjsPath1067" d="M 0 166.99999999999997Q 2.8999999999999972 166.99999999999997 2.8999999999999972 157.99999999999997L 2.8999999999999972 92.49999999999999Q 2.8999999999999972 83.49999999999999 22 83.49999999999999Q 2.8999999999999972 83.49999999999999 2.8999999999999972 74.49999999999999L 2.8999999999999972 9Q 2.8999999999999972 0 0 0" stroke="rgba(50,50,50,1)" stroke-width="2" fill="none"></path><path id="SvgjsPath1068" d="M 0 0L 28.99999999999997 0L 28.99999999999997 166.99999999999997L 0 166.99999999999997Z" stroke="none" fill="none"></path><g id="SvgjsG1069"><text id="SvgjsText1070" font-family="微软雅黑" text-anchor="start" font-size="13px" width="2px" fill="#323232" font-weight="400" align="middle" anchor="start" family="微软雅黑" size="13px" weight="400" font-style="" opacity="1" y="73.54999999999998" transform="rotate(0)"></text></g></g><g id="SvgjsG1071" transform="translate(117.25,25)"><path id="SvgjsPath1072" d="M 0 0L 52.5 0L 52.5 29L 0 29Z" stroke="none" fill="none"></path><g id="SvgjsG1073"><text id="SvgjsText1074" font-family="微软雅黑" text-anchor="middle" font-size="13px" width="53px" fill="#323232" font-weight="400" align="middle" anchor="middle" family="微软雅黑" size="13px" weight="400" font-style="" opacity="1" y="4.55" transform="rotate(0)"><tspan id="SvgjsTspan1075" dy="16" x="26.5"><tspan id="SvgjsTspan1076" style="text-decoration:;font-weight: bold;">sub</tspan></tspan></text></g></g></svg>